<svg width="29" height="41" viewBox="0 0 29 41" fill="none" xmlns="http://www.w3.org/2000/svg">
<path d="M14.5 0C6.48357 0 0 6.59117 0 14.7406C0 23.5218 9.15571 35.6302 12.9257 40.2419C13.7543 41.2527 15.2664 41.2527 16.095 40.2419C19.8443 35.6302 29 23.5218 29 14.7406C29 6.59117 22.5164 0 14.5 0ZM14.5 20.0051C11.6414 20.0051 9.32143 17.6466 9.32143 14.7406C9.32143 11.8346 11.6414 9.47612 14.5 9.47612C17.3586 9.47612 19.6786 11.8346 19.6786 14.7406C19.6786 17.6466 17.3586 20.0051 14.5 20.0051Z" fill="#FF4E00"/>
</svg>
