<svg width="39" height="31" viewBox="0 0 39 31" fill="none" xmlns="http://www.w3.org/2000/svg">
<path d="M38.2876 0.0616406C36.6983 0.80754 33.9936 2.20634 32.6344 2.4737C32.5818 2.48727 32.5389 2.5047 32.4882 2.51826C30.9028 0.964469 28.7305 0.00158089 26.3261 0.00158089C21.4802 0.00158089 17.5509 3.90544 17.5509 8.71989C17.5509 8.97369 17.5295 9.4406 17.5509 9.68859C11.2757 9.68859 6.69314 6.43569 3.26304 2.25478C2.80478 1.69293 2.31727 1.98548 2.21587 2.38458C1.98772 3.28741 1.90971 4.79665 1.90971 5.87384C1.90971 8.58814 4.045 11.254 7.3698 12.9066C6.75749 13.0635 6.08278 13.1759 5.38077 13.1759C4.55396 13.1759 3.60234 12.9609 2.76968 12.5269C2.46157 12.3661 1.79661 12.4106 1.99357 13.1933C2.78333 16.33 6.38699 18.5328 9.60649 19.1741C8.87523 19.6023 7.3152 19.5151 6.59759 19.5151C6.33239 19.5151 5.41002 19.4531 4.81331 19.3795C4.26925 19.3136 3.43269 19.4531 4.13275 20.507C5.63623 22.768 9.03708 24.1881 11.9641 24.2423C9.26914 26.3425 4.86206 27.1097 0.640243 27.1097C-0.213871 27.0903 -0.17097 28.0571 0.517391 28.4155C3.63159 30.0391 8.73288 31 12.3775 31C26.8662 31 35.1012 20.0285 35.1012 9.68665C35.1012 9.52003 35.0973 9.1713 35.0915 8.82063C35.0915 8.78576 35.1012 8.75282 35.1012 8.71795C35.1012 8.66564 35.0856 8.61527 35.0856 8.56296C35.0798 8.29947 35.0739 8.05342 35.0681 7.92555C36.2166 7.10216 37.9756 5.67235 38.8648 4.57772C39.167 4.20574 38.9233 3.75433 38.5118 3.89576C37.453 4.26193 35.6219 4.97101 34.4753 5.10663C36.7704 3.5974 37.9054 2.28384 38.8804 0.824977C39.2138 0.327065 38.7965 -0.178597 38.2876 0.0616406Z" fill="#FF4E00"/>
</svg>
